<?xml version="1.0" encoding="UTF-8" standalone="no"?>
<svg
   xmlns:dc="http://purl.org/dc/elements/1.1/"
   xmlns:cc="http://creativecommons.org/ns#"
   xmlns:rdf="http://www.w3.org/1999/02/22-rdf-syntax-ns#"
   xmlns:svg="http://www.w3.org/2000/svg"
   xmlns="http://www.w3.org/2000/svg"
   xmlns:sodipodi="http://sodipodi.sourceforge.net/DTD/sodipodi-0.dtd"
   xmlns:inkscape="http://www.inkscape.org/namespaces/inkscape"
   version="1.1"
   id="svg10"
   xml:space="preserve"
   width="177.21956"
   height="175.48094"
   viewBox="0 0 177.21956 175.48094"
   sodipodi:docname="LOGO_BDS.svg"
   inkscape:version="1.0.2 (e86c8708, 2021-01-15)"><metadata
     id="metadata16"><rdf:RDF><cc:Work
         rdf:about=""><dc:format>image/svg+xml</dc:format><dc:type
           rdf:resource="http://purl.org/dc/dcmitype/StillImage" /><dc:title></dc:title></cc:Work></rdf:RDF></metadata><defs
     id="defs14"><clipPath
       clipPathUnits="userSpaceOnUse"
       id="clipPath26"><path
         d="M 0,155.906 H 155.906 V 0 H 0 Z"
         id="path24" /></clipPath></defs><sodipodi:namedview
     pagecolor="#ffffff"
     bordercolor="#666666"
     borderopacity="1"
     objecttolerance="10"
     gridtolerance="10"
     guidetolerance="10"
     inkscape:pageopacity="0"
     inkscape:pageshadow="2"
     inkscape:window-width="1440"
     inkscape:window-height="777"
     id="namedview12"
     showgrid="false"
     inkscape:zoom="1.7729344"
     inkscape:cx="45.279292"
     inkscape:cy="67.8551"
     inkscape:window-x="0"
     inkscape:window-y="25"
     inkscape:window-maximized="0"
     inkscape:current-layer="g18" /><g
     id="g18"
     inkscape:groupmode="layer"
     inkscape:label="LOGO_BDS"
     transform="matrix(1.3333333,0,0,-1.3333333,-16.195644,191.18226)"><g
       id="g20"><g
         id="g22"
         clip-path="url(#clipPath26)"><g
           id="g28"
           transform="translate(77.6084,4.3799)" /><g
           id="g32"
           transform="translate(42.5313,31.2686)"><path
             d="m 0,0 c -0.349,0.236 -0.682,0.382 -0.996,0.439 -0.146,0.029 -0.344,0.029 -0.593,0 -0.25,-0.025 -0.49,-0.106 -0.72,-0.238 -0.23,-0.132 -0.415,-0.288 -0.555,-0.468 -0.107,-0.136 -0.211,-0.327 -0.312,-0.57 -0.102,-0.243 -0.145,-0.492 -0.132,-0.746 0.014,-0.256 0.112,-0.534 0.295,-0.835 0.184,-0.304 0.433,-0.577 0.747,-0.821 0.607,-0.475 0.958,-0.731 1.049,-0.765 0.064,0.074 0.11,0.13 0.138,0.167 l 0.14,0.188 0.297,0.372 0.333,0.425 c 0.603,0.791 0.946,1.269 1.032,1.434 0.086,0.163 0.09,0.358 0.015,0.583 C 0.664,-0.609 0.418,-0.331 0,0 m -1.481,-4.321 c -0.141,0.165 -0.303,0.317 -0.487,0.462 -0.721,0.563 -1.334,0.788 -1.84,0.672 -0.505,-0.116 -0.88,-0.33 -1.125,-0.644 -0.108,-0.14 -0.198,-0.3 -0.266,-0.48 -0.068,-0.18 -0.09,-0.375 -0.066,-0.581 0.024,-0.207 0.099,-0.405 0.225,-0.594 0.216,-0.326 0.475,-0.606 0.778,-0.843 0.285,-0.223 0.574,-0.398 0.866,-0.524 0.059,0.067 0.101,0.118 0.126,0.151 0.028,0.033 0.098,0.132 0.213,0.293 0.076,0.102 0.152,0.205 0.231,0.305 l 0.487,0.592 0.276,0.365 0.516,0.732 z m 0.007,-4.074 -0.122,-0.155 c -0.066,0.03 -0.117,0.058 -0.154,0.081 l -0.49,0.342 c -0.417,0.27 -0.876,0.582 -1.375,0.939 -0.199,0.145 -0.507,0.38 -0.924,0.707 -0.567,0.442 -0.95,0.808 -1.148,1.096 -0.287,0.423 -0.428,0.832 -0.422,1.229 0.005,0.396 0.128,0.745 0.365,1.049 0.386,0.493 1.061,0.632 2.029,0.419 l 0.052,0.019 c -0.283,0.379 -0.472,0.744 -0.567,1.098 -0.095,0.352 -0.107,0.703 -0.034,1.049 0.053,0.254 0.196,0.53 0.427,0.827 0.39,0.497 0.962,0.763 1.717,0.799 0.757,0.037 1.531,-0.257 2.325,-0.877 L 0.949,-0.355 1.725,-0.921 C 2.396,-1.435 2.79,-1.736 2.903,-1.825 3.019,-1.917 3.13,-2.011 3.236,-2.109 L 3.191,-2.166 C 3.159,-2.207 3.129,-2.229 3.099,-2.234 3.063,-2.238 3.011,-2.227 2.943,-2.195 2.46,-1.956 2.177,-1.831 2.097,-1.819 2.018,-1.809 1.94,-1.83 1.865,-1.883 1.722,-1.986 1.434,-2.313 1.002,-2.865 0.963,-2.915 0.915,-2.98 0.858,-3.059 0.691,-3.288 0.594,-3.418 0.568,-3.451 L 0.162,-3.971 C -0.524,-4.85 -1.114,-5.625 -1.606,-6.297 l -0.78,-1.007 -0.092,-0.129 c 0.252,-0.261 0.483,-0.481 0.691,-0.662 0.138,-0.111 0.242,-0.212 0.313,-0.3"
             style="fill:#868789;fill-opacity:1;fill-rule:nonzero;stroke:none"
             id="path34" /></g><g
           id="g36"
           transform="translate(30.0234,38.5205)"><path
             d="M 0,0 C -0.255,0.376 -0.557,0.795 -0.908,1.257 -1.108,1.519 -1.292,1.743 -1.459,1.929 -1.565,1.796 -1.659,1.663 -1.74,1.532 -2.16,0.867 -2.391,0.501 -2.433,0.431 l -0.816,-1.348 -0.054,-0.119 c 0.057,0.012 0.285,0.069 0.69,0.174 0.689,0.184 1.217,0.34 1.581,0.468 0.165,0.057 0.329,0.111 0.495,0.161 0.166,0.052 0.278,0.091 0.341,0.12 0.06,0.028 0.128,0.05 0.199,0.068 z M 4.865,-0.104 C 4.803,-0.076 4.757,-0.045 4.729,-0.008 L 4.64,0.108 C 4.622,0.133 4.59,0.172 4.543,0.226 4.322,0.468 4.183,0.603 4.122,0.631 3.968,0.701 3.781,0.717 3.559,0.68 3.082,0.595 2.445,0.421 1.649,0.161 1.27,0.037 1.037,-0.035 0.953,-0.057 0.688,-0.127 0.414,-0.208 0.132,-0.3 l -1.69,-0.536 C -1.822,-0.92 -2.436,-1.105 -3.399,-1.392 -3.643,-1.465 -3.96,-1.571 -4.354,-1.711 l -0.123,0.141 -0.128,0.18 c 0.174,0.363 0.386,0.725 0.631,1.086 0.129,0.196 0.315,0.493 0.557,0.896 l 1.492,2.346 0.815,1.266 c 0.476,0.702 0.761,1.144 0.856,1.321 0.096,0.179 0.145,0.316 0.149,0.409 0.001,0.027 -0.028,0.105 -0.084,0.236 -0.057,0.13 -0.094,0.222 -0.114,0.275 -0.074,0.189 -0.12,0.324 -0.135,0.409 0.026,0.041 0.049,0.07 0.071,0.084 0.016,0.014 0.046,0.028 0.087,0.043 C -0.195,6.876 -0.136,6.802 -0.103,6.758 0.029,6.587 0.254,6.278 0.574,5.837 L 0.947,5.323 1.421,4.718 C 1.451,4.678 1.48,4.636 1.509,4.59 1.537,4.545 1.563,4.507 1.586,4.477 L 1.67,4.366 C 1.694,4.327 1.71,4.285 1.717,4.242 1.67,4.206 1.619,4.18 1.562,4.163 1.511,4.188 1.471,4.216 1.442,4.247 L 1.003,4.751 C 0.891,4.884 0.794,4.974 0.709,5.021 0.632,4.995 0.579,4.971 0.549,4.948 0.487,4.902 0.365,4.738 0.178,4.459 0.055,4.269 -0.064,4.095 -0.182,3.933 -0.299,3.773 -0.662,3.214 -1.271,2.256 -1.188,2.101 -1.108,1.97 -1.029,1.865 L -0.196,0.792 0.041,0.471 C 0.128,0.355 0.232,0.235 0.354,0.11 0.489,0.144 0.583,0.17 0.637,0.189 L 2.365,0.802 C 3.038,1.017 3.4,1.144 3.454,1.184 3.484,1.207 3.523,1.262 3.57,1.346 3.537,1.433 3.484,1.539 3.411,1.671 L 2.949,2.403 C 2.951,2.463 2.964,2.502 2.987,2.521 3.005,2.534 3.033,2.548 3.075,2.563 3.193,2.414 3.283,2.3 3.346,2.219 3.551,1.948 3.78,1.629 4.035,1.26 4.154,1.089 4.241,0.97 4.294,0.899 4.348,0.827 4.444,0.707 4.585,0.537 4.679,0.428 4.744,0.348 4.783,0.298 4.846,0.216 4.919,0.109 5.007,-0.026 L 4.977,-0.05 C 4.953,-0.068 4.916,-0.086 4.865,-0.104"
             style="fill:#868789;fill-opacity:1;fill-rule:nonzero;stroke:none"
             id="path38" /></g><g
           id="g40"
           transform="translate(18.1904,50.5137)"><path
             d="m 0,0 -0.285,-0.108 c -0.221,0.617 -0.399,1.063 -0.534,1.338 -0.052,0.108 -0.085,0.182 -0.102,0.227 -0.013,0.036 -0.03,0.09 -0.052,0.163 0.079,0.218 0.183,0.431 0.312,0.638 0.024,0.045 0.052,0.095 0.081,0.15 l 0.939,1.761 0.15,0.257 C 0.717,4.787 0.888,5.111 1.024,5.396 1.16,5.68 1.454,6.245 1.905,7.092 L 2.977,9.088 C 3.081,9.282 3.21,9.532 3.362,9.834 L 3.265,9.806 C 2.72,9.583 2.431,9.466 2.399,9.454 L 2.032,9.35 1.476,9.136 1.218,9.044 C 1.055,8.984 0.557,8.79 -0.278,8.46 -0.393,8.413 -0.604,8.319 -0.916,8.177 -1.226,8.033 -1.503,7.917 -1.746,7.831 -2.184,7.673 -2.43,7.556 -2.483,7.479 -2.521,7.425 -2.515,7.236 -2.461,6.913 -2.439,6.84 -2.412,6.724 -2.377,6.566 c 0.056,-0.182 0.083,-0.293 0.083,-0.328 0,-0.036 -0.022,-0.08 -0.066,-0.132 -0.067,-0.014 -0.133,-0.019 -0.2,-0.01 -0.07,0.096 -0.124,0.195 -0.161,0.299 -0.04,0.111 -0.076,0.255 -0.106,0.43 -0.032,0.176 -0.072,0.328 -0.119,0.46 -0.066,0.184 -0.18,0.464 -0.343,0.842 -0.094,0.213 -0.156,0.361 -0.186,0.445 l -0.037,0.102 0.19,0.055 c 0.051,-0.054 0.098,-0.136 0.145,-0.246 0.045,-0.109 0.101,-0.207 0.161,-0.292 0.097,-0.128 0.165,-0.2 0.207,-0.216 0.138,-0.058 0.26,-0.068 0.369,-0.03 l 1.864,0.743 0.849,0.36 0.252,0.084 1.189,0.468 c 0.81,0.318 1.519,0.586 2.125,0.802 0.132,0.047 0.42,0.142 0.863,0.285 L 4.827,10.416 C 4.717,10.219 4.388,9.559 3.838,8.435 3.712,8.173 3.62,7.994 3.564,7.898 L 3.157,7.172 C 3.011,6.895 2.918,6.715 2.88,6.634 2.841,6.553 2.813,6.493 2.795,6.455 2.457,5.844 2.043,5.058 1.551,4.098 1.419,3.84 1.206,3.453 0.914,2.938 0.729,2.616 0.618,2.414 0.579,2.333 0.541,2.251 0.502,2.146 0.464,2.015 L 0.673,2.069 C 1.45,2.349 2.515,2.753 3.866,3.284 L 5.829,4.036 C 5.994,4.099 6.152,4.168 6.303,4.239 L 6.274,4.465 C 6.175,4.855 6.095,5.249 6.034,5.641 6.049,5.677 6.058,5.707 6.063,5.73 L 6.291,5.808 C 6.335,5.75 6.363,5.702 6.378,5.662 6.393,5.619 6.409,5.563 6.424,5.497 6.534,5.091 6.689,4.605 6.893,4.04 7.036,3.642 7.172,3.294 7.3,3 L 7.336,2.918 C 7.349,2.882 7.363,2.828 7.38,2.758 L 7.204,2.688 7.075,2.817 6.933,3.083 C 6.807,3.321 6.702,3.49 6.615,3.591 6.562,3.655 6.497,3.702 6.424,3.729 6.133,3.674 5.723,3.553 5.193,3.362 4.946,3.273 4.497,3.105 3.844,2.857 L 3.031,2.566 1.339,1.943 C 0.586,1.664 0.149,1.479 0.028,1.386 -0.034,1.337 -0.08,1.264 -0.109,1.169 -0.162,0.979 -0.159,0.756 -0.099,0.501 -0.038,0.246 -0.005,0.079 0,0"
             style="fill:#868789;fill-opacity:1;fill-rule:nonzero;stroke:none"
             id="path42" /></g><g
           id="g44"
           transform="translate(12.6074,77.7002)"><path
             d="M 0,0 C 0.322,0.065 0.654,0.105 0.998,0.12 1.065,0.123 1.156,0.125 1.271,0.126 1.286,0.068 1.295,0.024 1.296,-0.006 1.297,-0.031 1.294,-0.067 1.288,-0.114 0.802,-0.313 0.434,-0.621 0.186,-1.034 -0.063,-1.448 -0.174,-1.95 -0.147,-2.542 -0.133,-2.855 -0.086,-3.116 -0.005,-3.33 0.144,-3.704 0.339,-4.03 0.582,-4.308 0.825,-4.585 1.111,-4.814 1.44,-5 c 0.328,-0.185 0.721,-0.324 1.182,-0.421 0.459,-0.096 0.925,-0.133 1.399,-0.111 0.905,0.04 1.646,0.211 2.223,0.511 0.578,0.301 0.982,0.696 1.211,1.186 0.232,0.489 0.334,0.977 0.314,1.462 l -0.02,0.298 C 7.691,-1.738 7.642,-1.51 7.598,-1.39 7.494,-1.085 7.379,-0.834 7.249,-0.639 7.12,-0.443 6.941,-0.256 6.713,-0.071 6.483,0.11 6.222,0.263 5.924,0.385 L 5.895,0.461 c 0,0.02 0.01,0.053 0.034,0.097 0.101,0 0.167,-0.001 0.196,-0.004 C 6.848,0.407 7.342,0.301 7.606,0.231 7.627,0.164 7.656,0.081 7.694,-0.019 7.887,-0.505 8,-1.164 8.037,-1.993 8.066,-2.66 8.044,-3.163 7.968,-3.498 7.893,-3.834 7.766,-4.201 7.592,-4.602 7.417,-5 7.178,-5.355 6.873,-5.665 6.569,-5.976 6.18,-6.232 5.703,-6.436 5.229,-6.64 4.704,-6.753 4.134,-6.779 3.593,-6.804 3.116,-6.753 2.706,-6.627 c -0.409,0.125 -0.829,0.329 -1.257,0.61 -0.426,0.282 -0.788,0.621 -1.081,1.016 -0.292,0.397 -0.507,0.841 -0.642,1.335 -0.093,0.347 -0.153,0.843 -0.181,1.484 -0.022,0.47 0.02,0.914 0.127,1.335 C -0.222,-0.428 -0.113,-0.146 0,0"
             style="fill:#868789;fill-opacity:1;fill-rule:nonzero;stroke:none"
             id="path46" /></g><g
           id="g48"
           transform="translate(22.168,91.8164)"><path
             d="M 0,0 C 0.088,0.344 0.132,0.714 0.13,1.109 0.129,1.505 0.053,1.875 -0.096,2.219 -0.247,2.564 -0.442,2.853 -0.688,3.087 -0.931,3.323 -1.262,3.546 -1.684,3.76 -2.106,3.972 -2.54,4.135 -2.987,4.25 -3.545,4.393 -4.117,4.452 -4.705,4.429 -5.151,4.406 -5.574,4.294 -5.974,4.092 -6.373,3.887 -6.714,3.604 -6.996,3.245 -7.278,2.885 -7.479,2.476 -7.596,2.016 -7.69,1.644 -7.723,1.263 -7.691,0.874 c 0.032,-0.388 0.114,-0.721 0.245,-1 0.132,-0.278 0.347,-0.56 0.647,-0.847 0.302,-0.287 0.65,-0.534 1.045,-0.745 0.397,-0.211 0.756,-0.358 1.08,-0.441 0.34,-0.087 0.738,-0.135 1.195,-0.142 0.457,-0.008 0.867,0.037 1.227,0.135 0.361,0.097 0.697,0.245 1.009,0.442 0.309,0.199 0.571,0.443 0.783,0.733 C -0.248,-0.699 -0.095,-0.369 0,0 m -4.918,-3.288 c -0.418,0.106 -0.777,0.251 -1.077,0.435 -0.3,0.184 -0.61,0.444 -0.931,0.78 -0.321,0.335 -0.565,0.703 -0.736,1.104 -0.17,0.404 -0.278,0.926 -0.321,1.571 -0.029,0.454 0.039,1 0.202,1.638 0.11,0.431 0.276,0.838 0.496,1.22 0.221,0.383 0.476,0.716 0.767,1 0.291,0.283 0.693,0.539 1.205,0.766 0.355,0.158 0.718,0.253 1.089,0.285 C -3.737,5.552 -3.257,5.512 -2.78,5.39 -2.24,5.251 -1.805,5.084 -1.475,4.889 -1.144,4.693 -0.836,4.426 -0.552,4.092 -0.33,3.83 -0.103,3.42 0.13,2.863 0.288,2.49 0.38,2.054 0.407,1.554 0.435,1.052 0.379,0.533 0.241,-0.003 0.103,-0.549 -0.086,-1.019 -0.321,-1.412 c -0.238,-0.395 -0.483,-0.71 -0.74,-0.948 -0.254,-0.239 -0.598,-0.462 -1.032,-0.672 -0.433,-0.211 -0.886,-0.337 -1.356,-0.383 -0.471,-0.046 -0.96,-0.004 -1.469,0.127"
             style="fill:#868789;fill-opacity:1;fill-rule:nonzero;stroke:none"
             id="path50" /></g><g
           id="g52"
           transform="translate(36.2979,117.835)"><path
             d="M 0,0 C 0.306,0.147 0.575,0.339 0.811,0.57 1.114,0.872 1.365,1.214 1.563,1.598 1.761,1.98 1.887,2.37 1.939,2.765 1.992,3.159 1.983,3.537 1.912,3.897 1.84,4.258 1.748,4.556 1.637,4.79 1.467,5.129 1.181,5.503 0.776,5.911 0.39,6.304 -0.088,6.619 -0.65,6.858 -1.042,7.024 -1.508,7.095 -2.049,7.065 -2.589,7.037 -3.112,6.889 -3.622,6.62 -4.13,6.353 -4.612,5.993 -5.066,5.544 -5.379,5.234 -5.576,4.971 -5.658,4.753 -5.657,4.717 -5.656,4.678 -5.65,4.636 -5.594,4.544 -5.534,4.465 -5.471,4.401 -5.433,4.362 -5.385,4.317 -5.328,4.267 -4.975,3.927 -4.693,3.651 -4.484,3.44 L -3.476,2.412 C -1.987,0.907 -1.131,0.099 -0.907,-0.018 -0.684,-0.132 -0.381,-0.126 0,0 m -2.119,-2.452 c 0.064,0.158 0.161,0.317 0.294,0.479 0.19,0.234 0.299,0.445 0.326,0.626 -0.082,0.246 -0.458,0.707 -1.129,1.385 L -3.334,0.752 -3.75,1.19 -4.071,1.497 -4.638,2.089 -6.104,3.543 C -6.268,3.708 -6.399,3.794 -6.498,3.797 -6.641,3.804 -6.895,3.69 -7.255,3.46 -7.403,3.365 -7.504,3.314 -7.554,3.311 -7.603,3.307 -7.662,3.333 -7.73,3.391 c 0.054,0.083 0.094,0.138 0.122,0.165 l 0.32,0.317 0.163,0.169 c 0.111,0.11 0.246,0.221 0.405,0.33 0.295,0.257 0.589,0.528 0.88,0.816 0.085,0.084 0.2,0.208 0.348,0.372 0.391,0.435 0.678,0.741 0.857,0.919 0.364,0.361 0.744,0.665 1.139,0.912 0.395,0.249 0.86,0.444 1.396,0.588 0.337,0.087 0.748,0.109 1.235,0.065 C -0.377,7.999 0.08,7.878 0.507,7.678 0.934,7.478 1.342,7.182 1.731,6.787 2.08,6.436 2.361,6.023 2.576,5.551 2.791,5.078 2.91,4.601 2.932,4.12 2.954,3.641 2.912,3.221 2.805,2.859 2.696,2.5 2.446,2.036 2.058,1.466 1.895,1.234 1.557,0.863 1.042,0.354 0.702,0.019 0.415,-0.246 0.181,-0.437 0.085,-0.507 -0.011,-0.591 -0.107,-0.685 -0.122,-0.699 -0.139,-0.718 -0.152,-0.739 l -1.806,-1.858 -0.046,0.027 c -0.02,0.009 -0.04,0.022 -0.058,0.042 z"
             style="fill:#868789;fill-opacity:1;fill-rule:nonzero;stroke:none"
             id="path54" /></g><g
           id="g56"
           transform="translate(48.2393,127.248)"><path
             d="M 0,0 C 0.02,0.053 0.041,0.09 0.064,0.11 0.118,0.162 0.219,0.233 0.366,0.325 0.719,0.537 0.927,0.689 0.988,0.779 1.003,0.883 0.974,1.001 0.902,1.137 L 0.691,1.528 -0.05,2.963 -0.415,3.633 -1.148,5.051 -2.016,6.642 C -2.219,7.022 -2.357,7.227 -2.428,7.252 -2.531,7.288 -2.755,7.225 -3.094,7.061 -3.239,6.99 -3.369,6.936 -3.488,6.898 c -0.064,0.001 -0.105,0.023 -0.127,0.063 -0.016,0.03 -0.026,0.071 -0.028,0.122 0.025,0.036 0.049,0.062 0.077,0.075 0.051,0.028 0.116,0.059 0.193,0.095 0.233,0.092 0.469,0.201 0.705,0.324 l 0.41,0.229 1.002,0.495 c 0.495,0.259 0.879,0.466 1.15,0.621 0.271,0.157 0.457,0.26 0.554,0.311 0.086,0.045 0.304,0.15 0.653,0.313 l 0.795,0.423 0.106,0.033 0.457,0.261 0.072,10e-4 C 2.564,10.243 2.596,10.219 2.62,10.189 2.647,10.137 2.681,10.052 2.721,9.934 2.761,9.815 2.787,9.744 2.801,9.719 3.006,9.329 3.19,9.004 3.358,8.748 3.366,8.724 3.364,8.703 3.349,8.686 3.309,8.665 3.268,8.651 3.229,8.645 3.15,8.694 3.029,8.792 2.867,8.937 2.703,9.079 2.49,9.233 2.228,9.397 2.052,9.505 1.929,9.561 1.86,9.563 1.794,9.565 1.676,9.523 1.511,9.438 1.477,9.421 1.305,9.335 0.992,9.182 0.909,9.142 0.826,9.101 0.748,9.062 L -0.839,8.189 -0.979,8.115 C -1.187,8.007 -1.297,7.917 -1.311,7.843 -1.327,7.719 -1.221,7.438 -0.992,7 -0.968,6.954 -0.724,6.509 -0.259,5.663 L 0.15,4.881 C 0.197,4.892 0.245,4.91 0.293,4.936 L 0.389,4.985 C 0.453,5.019 0.548,5.064 0.675,5.126 0.872,5.221 1.007,5.286 1.074,5.32 1.117,5.345 1.156,5.367 1.188,5.388 1.586,5.615 2.104,5.895 2.742,6.228 2.922,6.365 3.019,6.466 3.028,6.527 3.049,6.624 2.999,6.823 2.879,7.123 2.758,7.423 2.736,7.616 2.814,7.705 2.863,7.73 2.913,7.744 2.964,7.747 2.986,7.721 3.006,7.696 3.02,7.67 3.033,7.643 3.052,7.598 3.076,7.534 3.129,7.385 3.347,6.945 3.729,6.214 3.831,6.019 3.956,5.807 4.101,5.578 4.247,5.349 4.326,5.224 4.335,5.205 4.353,5.171 4.37,5.124 4.388,5.062 4.366,5.031 4.347,5.011 4.328,5.001 L 4.288,4.98 C 4.173,5.054 4.028,5.186 3.857,5.378 3.563,5.706 3.336,5.891 3.18,5.931 3.022,5.97 2.823,5.928 2.584,5.802 2.531,5.774 2.437,5.721 2.302,5.644 2.165,5.565 1.96,5.455 1.687,5.313 L 1.321,5.121 C 0.8,4.848 0.465,4.658 0.315,4.552 L 0.406,4.363 0.954,3.329 1.29,2.672 1.628,2.038 C 1.832,1.656 1.973,1.448 2.049,1.412 2.154,1.362 2.315,1.394 2.528,1.505 L 2.87,1.689 c 0.029,0.017 0.149,0.076 0.356,0.177 0.207,0.1 0.462,0.229 0.76,0.387 C 4.71,2.631 5.177,2.913 5.385,3.1 5.592,3.287 5.732,3.501 5.806,3.741 5.878,3.98 5.897,4.424 5.859,5.068 5.851,5.261 5.882,5.376 5.953,5.413 5.986,5.431 6.031,5.436 6.089,5.427 6.174,4.999 6.239,4.722 6.285,4.599 6.38,4.313 6.496,4.033 6.632,3.756 6.697,3.632 6.72,3.513 6.703,3.398 L 6.58,3.335 5.007,2.492 4.296,2.127 2.62,1.222 1.934,0.864 C 1.847,0.819 1.767,0.775 1.694,0.732 1.034,0.35 0.546,0.075 0.227,-0.092 c -0.056,-0.029 -0.1,-0.04 -0.13,-0.032 -0.03,0.007 -0.055,0.029 -0.074,0.065 z"
             style="fill:#868789;fill-opacity:1;fill-rule:nonzero;stroke:none"
             id="path58" /></g><g
           id="g60"
           transform="translate(71.7148,143.0693)"><path
             d="M 0,0 C 0.069,-0.271 0.108,-0.43 0.113,-0.471 L 0.164,-1.034 C 0.188,-1.274 0.198,-1.429 0.194,-1.497 0.159,-1.52 0.129,-1.532 0.104,-1.535 L 0.045,-1.53 c -0.213,0.569 -0.498,0.966 -0.855,1.191 -0.357,0.226 -0.766,0.307 -1.227,0.244 -0.479,-0.064 -0.853,-0.251 -1.123,-0.56 -0.27,-0.31 -0.38,-0.643 -0.332,-0.999 0.037,-0.273 0.177,-0.508 0.421,-0.706 0.244,-0.198 0.838,-0.463 1.778,-0.795 0.718,-0.256 1.236,-0.476 1.556,-0.658 0.319,-0.181 0.572,-0.407 0.758,-0.676 0.185,-0.27 0.302,-0.583 0.35,-0.941 0.06,-0.449 0,-0.886 -0.179,-1.312 C 1.013,-7.168 0.739,-7.508 0.371,-7.76 0.004,-8.012 -0.505,-8.183 -1.154,-8.27 c -0.567,-0.076 -1.122,-0.059 -1.666,0.051 -0.321,0.069 -0.52,0.131 -0.595,0.189 -0.076,0.058 -0.12,0.125 -0.131,0.2 -0.005,0.047 -0.009,0.105 -0.01,0.179 -0.008,0.502 -0.032,0.913 -0.07,1.233 -0.02,0.197 -0.02,0.315 -0.004,0.352 0.014,0.032 0.043,0.05 0.09,0.057 0.037,0.004 0.069,-0.005 0.096,-0.029 0.027,-0.025 0.049,-0.073 0.068,-0.149 0.115,-0.509 0.417,-0.938 0.903,-1.287 0.483,-0.349 0.995,-0.488 1.536,-0.414 0.332,0.043 0.627,0.155 0.887,0.331 0.261,0.175 0.452,0.406 0.573,0.689 0.123,0.282 0.167,0.548 0.134,0.796 -0.046,0.34 -0.207,0.634 -0.484,0.882 -0.277,0.249 -0.802,0.513 -1.573,0.791 -0.773,0.278 -1.279,0.488 -1.52,0.631 -0.39,0.233 -0.694,0.496 -0.914,0.787 -0.162,0.226 -0.266,0.5 -0.309,0.823 -0.077,0.583 0.086,1.106 0.493,1.574 0.407,0.468 0.998,0.752 1.774,0.857 0.428,0.058 0.804,0.059 1.127,0.004 C -0.513,0.232 -0.264,0.14 0,0"
             style="fill:#868789;fill-opacity:1;fill-rule:nonzero;stroke:none"
             id="path62" /></g><g
           id="g64"
           transform="translate(86.2168,135.1885)"><path
             d="m 0,0 c 0.353,-0.047 0.725,-0.045 1.118,0.005 0.392,0.049 0.75,0.167 1.074,0.359 0.324,0.19 0.587,0.42 0.791,0.69 0.204,0.27 0.386,0.627 0.546,1.072 C 3.689,2.57 3.8,3.021 3.859,3.479 3.934,4.049 3.923,4.624 3.827,5.205 3.754,5.646 3.591,6.052 3.341,6.423 3.09,6.796 2.77,7.1 2.378,7.337 1.985,7.572 1.555,7.722 1.086,7.783 0.703,7.833 0.321,7.818 -0.061,7.74 -0.441,7.661 -0.762,7.54 -1.022,7.376 -1.283,7.211 -1.537,6.963 -1.786,6.63 -2.033,6.298 -2.239,5.923 -2.399,5.504 -2.561,5.085 -2.663,4.711 -2.707,4.379 -2.752,4.031 -2.751,3.63 -2.703,3.175 -2.656,2.721 -2.562,2.32 -2.421,1.974 -2.28,1.626 -2.095,1.311 -1.86,1.026 -1.627,0.741 -1.352,0.513 -1.038,0.337 -0.723,0.161 -0.377,0.048 0,0 m -3.857,4.484 c 0.055,0.428 0.156,0.803 0.302,1.122 0.147,0.32 0.367,0.66 0.661,1.018 0.293,0.358 0.63,0.647 1.009,0.864 0.378,0.218 0.885,0.388 1.52,0.51 C 0.08,8.08 0.632,8.079 1.286,7.993 1.727,7.936 2.149,7.821 2.557,7.649 2.962,7.476 3.324,7.263 3.641,7.008 3.957,6.753 4.26,6.386 4.547,5.904 4.747,5.571 4.885,5.222 4.961,4.857 5.061,4.38 5.079,3.897 5.015,3.41 4.943,2.855 4.829,2.403 4.676,2.053 4.521,1.702 4.294,1.364 3.995,1.04 3.763,0.789 3.384,0.514 2.857,0.216 2.507,0.015 2.085,-0.13 1.591,-0.218 1.098,-0.304 0.576,-0.313 0.026,-0.241 c -0.557,0.073 -1.047,0.202 -1.466,0.389 -0.419,0.188 -0.762,0.394 -1.03,0.619 -0.266,0.224 -0.531,0.539 -0.793,0.944 -0.26,0.405 -0.442,0.839 -0.544,1.3 -0.102,0.462 -0.119,0.953 -0.05,1.473"
             style="fill:#868789;fill-opacity:1;fill-rule:nonzero;stroke:none"
             id="path66" /></g><g
           id="g68"
           transform="translate(98.9346,132.0342)"><path
             d="M 0,0 C 0.029,0.056 0.067,0.102 0.116,0.136 0.453,0.083 0.771,0.007 1.07,-0.093 1.266,-0.161 1.407,-0.172 1.492,-0.127 1.552,-0.094 1.658,0.081 1.81,0.399 l 0.718,1.515 0.455,1.043 0.61,1.356 0.159,0.361 C 4.118,5.488 4.34,5.999 4.418,6.207 4.431,6.247 4.439,6.308 4.442,6.39 4.362,6.48 4.292,6.549 4.23,6.596 4.17,6.641 3.891,6.831 3.393,7.168 3.407,7.212 3.42,7.243 3.428,7.264 3.438,7.286 3.454,7.316 3.476,7.354 3.549,7.32 3.667,7.263 3.829,7.181 L 4.699,6.755 5.205,6.517 5.358,6.456 C 5.378,6.447 5.432,6.419 5.521,6.369 5.75,6.269 5.884,6.211 5.92,6.199 L 6.401,6.029 C 6.714,5.89 6.932,5.786 7.056,5.718 7.021,5.65 6.974,5.58 6.913,5.51 6.868,5.521 6.663,5.6 6.297,5.745 5.932,5.891 5.713,5.961 5.646,5.954 5.534,5.942 5.422,5.808 5.307,5.549 5.279,5.486 5.22,5.363 5.128,5.176 L 4.974,4.829 4.504,3.753 4.341,3.387 3.502,1.46 2.758,-0.167 2.604,-0.53 C 2.553,-0.646 2.541,-0.727 2.568,-0.771 2.663,-0.817 2.945,-0.948 3.415,-1.161 l 0.396,-0.174 1.018,-0.41 c 0.266,-0.11 0.466,-0.167 0.599,-0.172 0.131,-0.006 0.377,0.042 0.735,0.142 0.22,0.069 0.407,0.157 0.563,0.265 0.032,0.023 0.086,0.054 0.159,0.096 0.119,0.067 0.306,0.226 0.564,0.472 L 7.64,-1.026 C 7.557,-1.156 7.473,-1.277 7.391,-1.388 7.036,-1.884 6.757,-2.304 6.554,-2.649 6.512,-2.724 6.472,-2.792 6.436,-2.854 L 4.292,-1.828 C 2.429,-1 1.314,-0.527 0.95,-0.408 0.839,-0.368 0.723,-0.321 0.604,-0.269 Z"
             style="fill:#868789;fill-opacity:1;fill-rule:nonzero;stroke:none"
             id="path70" /></g><g
           id="g72"
           transform="translate(110.7021,126.2744)"><path
             d="m 0,0 c 0.098,-0.023 0.188,-0.06 0.273,-0.108 0.553,-0.338 0.901,-0.491 1.04,-0.452 0.142,0.039 0.494,0.455 1.056,1.25 l 0.379,0.548 0.404,0.572 0.422,0.642 0.272,0.361 0.28,0.409 0.337,0.476 0.141,0.22 0.2,0.263 C 4.852,4.24 4.904,4.312 4.964,4.395 5.117,4.613 5.27,4.851 5.42,5.106 5.44,5.165 5.454,5.226 5.462,5.287 5.38,5.443 5.206,5.634 4.936,5.857 4.667,6.081 4.523,6.221 4.506,6.276 4.491,6.315 4.515,6.38 4.571,6.469 L 5.008,6.161 6.362,5.157 C 6.715,4.908 7.192,4.586 7.795,4.19 7.756,4.136 7.717,4.085 7.675,4.042 7.595,4.073 7.465,4.136 7.288,4.23 6.933,4.425 6.707,4.53 6.609,4.547 6.552,4.561 6.499,4.554 6.449,4.528 6.371,4.49 6.268,4.389 6.141,4.224 L 5.642,3.573 4.031,1.249 3.386,0.337 C 3.177,0.055 3.035,-0.139 2.961,-0.241 2.688,-0.63 2.521,-0.884 2.466,-1.004 2.408,-1.124 2.388,-1.226 2.4,-1.306 2.414,-1.384 2.465,-1.476 2.553,-1.579 2.685,-1.73 2.794,-1.838 2.882,-1.905 3.071,-2.05 3.173,-2.164 3.191,-2.248 3.169,-2.301 3.147,-2.343 3.126,-2.373 L 3.098,-2.414 c -0.323,0.212 -0.558,0.37 -0.708,0.476 -0.085,0.06 -0.237,0.174 -0.451,0.341 l -0.723,0.496 -1.218,0.868 -0.098,0.069 z"
             style="fill:#868789;fill-opacity:1;fill-rule:nonzero;stroke:none"
             id="path74" /></g><g
           id="g76"
           transform="translate(121.6396,117.2373)"><path
             d="m 0,0 c 0.129,-0.314 0.303,-0.597 0.521,-0.844 0.281,-0.321 0.608,-0.593 0.979,-0.813 0.37,-0.221 0.752,-0.368 1.143,-0.444 0.391,-0.077 0.769,-0.09 1.133,-0.042 0.365,0.051 0.667,0.125 0.908,0.224 0.348,0.148 0.739,0.412 1.171,0.793 0.414,0.362 0.755,0.818 1.029,1.367 0.189,0.38 0.286,0.842 0.29,1.383 C 7.177,2.164 7.06,2.696 6.823,3.221 6.585,3.744 6.256,4.246 5.834,4.726 5.544,5.058 5.292,5.27 5.079,5.364 5.043,5.367 5.004,5.366 4.962,5.362 4.866,5.313 4.783,5.257 4.718,5.198 4.676,5.162 4.629,5.118 4.574,5.064 4.213,4.73 3.921,4.466 3.699,4.271 L 2.611,3.324 C 1.022,1.929 0.164,1.121 0.036,0.905 -0.092,0.688 -0.104,0.387 0,0 m -2.323,2.26 c 0.154,-0.074 0.308,-0.182 0.46,-0.323 0.224,-0.204 0.426,-0.325 0.607,-0.364 0.25,0.069 0.734,0.417 1.449,1.046 L 0.947,3.282 1.409,3.67 1.735,3.974 2.358,4.504 3.897,5.881 C 4.072,6.034 4.164,6.161 4.174,6.259 4.189,6.402 4.092,6.66 3.883,7.034 3.797,7.19 3.753,7.291 3.752,7.342 3.75,7.391 3.78,7.448 3.842,7.514 3.922,7.454 3.976,7.41 4.001,7.382 L 4.297,7.044 4.458,6.87 C 4.561,6.754 4.663,6.612 4.763,6.446 5.001,6.138 5.254,5.828 5.526,5.519 5.604,5.431 5.721,5.309 5.875,5.15 6.286,4.734 6.575,4.431 6.743,4.239 7.081,3.854 7.361,3.459 7.585,3.05 7.809,2.641 7.977,2.164 8.089,1.62 8.156,1.28 8.153,0.867 8.08,0.385 8.007,-0.1 7.858,-0.549 7.633,-0.963 7.408,-1.377 7.089,-1.768 6.672,-2.134 6.299,-2.46 5.871,-2.716 5.387,-2.902 4.903,-3.089 4.42,-3.179 3.938,-3.173 3.458,-3.167 3.041,-3.1 2.688,-2.971 2.336,-2.842 1.886,-2.565 1.341,-2.144 1.117,-1.967 0.768,-1.606 0.29,-1.063 c -0.315,0.36 -0.561,0.662 -0.736,0.906 -0.066,0.1 -0.144,0.202 -0.233,0.303 -0.013,0.016 -0.031,0.034 -0.05,0.049 l -1.748,1.912 0.031,0.043 c 0.009,0.02 0.025,0.038 0.044,0.056 z"
             style="fill:#868789;fill-opacity:1;fill-rule:nonzero;stroke:none"
             id="path78" /></g><g
           id="g80"
           transform="translate(134.4863,104.9688)"><path
             d="m 0,0 c 0.17,-0.421 0.377,-0.893 0.622,-1.418 0.141,-0.3 0.272,-0.558 0.399,-0.774 0.13,0.108 0.249,0.216 0.357,0.328 0.55,0.56 0.852,0.87 0.91,0.929 L 3.371,0.209 3.446,0.314 C 3.391,0.316 3.153,0.308 2.736,0.292 2.023,0.258 1.476,0.216 1.093,0.167 0.92,0.146 0.747,0.129 0.573,0.113 0.401,0.1 0.282,0.084 0.216,0.07 0.15,0.056 0.081,0.048 0.008,0.046 Z M -4.732,1.13 C -4.677,1.091 -4.64,1.05 -4.62,1.009 L -4.558,0.876 C -4.545,0.85 -4.521,0.804 -4.487,0.741 -4.322,0.458 -4.214,0.296 -4.162,0.256 -4.026,0.155 -3.847,0.1 -3.621,0.088 c 0.483,-0.017 1.142,0.018 1.976,0.103 0.397,0.042 0.638,0.064 0.726,0.068 0.273,0.011 0.56,0.032 0.854,0.062 l 1.764,0.167 c 0.278,0.027 0.917,0.078 1.918,0.155 0.252,0.018 0.586,0.055 1,0.109 L 4.708,0.588 4.796,0.385 C 4.547,0.068 4.265,-0.241 3.948,-0.544 3.78,-0.706 3.537,-0.958 3.216,-1.3 L 1.261,-3.278 0.197,-4.344 c -0.615,-0.585 -0.987,-0.955 -1.118,-1.11 -0.131,-0.154 -0.207,-0.276 -0.23,-0.367 -0.006,-0.027 0.004,-0.109 0.032,-0.247 0.026,-0.14 0.045,-0.239 0.053,-0.295 0.032,-0.2 0.047,-0.342 0.045,-0.428 -0.036,-0.033 -0.064,-0.057 -0.086,-0.067 -0.02,-0.01 -0.052,-0.017 -0.094,-0.024 -0.062,0.121 -0.104,0.206 -0.128,0.256 -0.092,0.195 -0.246,0.543 -0.467,1.044 l -0.256,0.58 -0.334,0.692 c -0.021,0.046 -0.041,0.093 -0.059,0.144 -0.018,0.049 -0.035,0.092 -0.052,0.126 l -0.059,0.127 c -0.015,0.044 -0.022,0.087 -0.019,0.131 0.054,0.024 0.109,0.039 0.169,0.044 0.044,-0.035 0.078,-0.072 0.099,-0.108 l 0.323,-0.585 c 0.081,-0.154 0.157,-0.263 0.23,-0.326 0.079,0.009 0.137,0.022 0.171,0.037 0.07,0.032 0.225,0.166 0.467,0.401 0.159,0.159 0.313,0.305 0.462,0.437 0.148,0.133 0.622,0.603 1.42,1.409 -0.047,0.169 -0.099,0.315 -0.155,0.433 l -0.586,1.226 -0.164,0.364 c -0.061,0.13 -0.138,0.269 -0.23,0.418 -0.139,-0.004 -0.237,-0.01 -0.293,-0.018 L -2.48,-0.283 C -3.183,-0.35 -3.565,-0.398 -3.625,-0.427 -3.66,-0.442 -3.71,-0.487 -3.774,-0.559 -3.76,-0.649 -3.73,-0.768 -3.687,-0.91 l 0.297,-0.816 c -0.014,-0.057 -0.036,-0.092 -0.063,-0.105 -0.019,-0.008 -0.05,-0.017 -0.094,-0.023 -0.085,0.17 -0.147,0.302 -0.191,0.394 -0.144,0.307 -0.3,0.668 -0.472,1.083 -0.08,0.191 -0.139,0.327 -0.176,0.407 -0.038,0.08 -0.107,0.22 -0.209,0.414 -0.068,0.128 -0.116,0.22 -0.142,0.279 -0.043,0.09 -0.093,0.212 -0.151,0.363 l 0.035,0.016 c 0.028,0.013 0.067,0.022 0.121,0.028"
             style="fill:#868789;fill-opacity:1;fill-rule:nonzero;stroke:none"
             id="path82" /></g><g
           id="g84"
           transform="translate(140.2412,88.751)"><path
             d="m 0,0 c 0.016,-0.113 0.027,-0.196 0.035,-0.251 0.05,-0.301 0.14,-0.643 0.276,-1.023 0.099,-0.267 0.222,-0.475 0.375,-0.627 0.151,-0.152 0.356,-0.265 0.616,-0.34 0.261,-0.076 0.52,-0.093 0.779,-0.051 0.282,0.045 0.568,0.184 0.857,0.414 0.219,0.178 0.383,0.443 0.492,0.798 0.11,0.354 0.127,0.762 0.053,1.22 C 3.465,0.253 3.435,0.398 3.394,0.576 3.173,0.557 3.005,0.539 2.889,0.521 L 1.725,0.299 1.242,0.228 C 0.916,0.175 0.503,0.1 0,0 M -4.474,1.661 C -4.304,1.064 -4.2,0.73 -4.157,0.655 -4.128,0.605 -4.056,0.566 -3.944,0.537 l 0.068,0.011 c 0.105,0.017 0.484,0.061 1.142,0.134 0.184,0.021 0.364,0.047 0.539,0.075 l 0.744,0.139 0.847,0.125 1.57,0.261 1.128,0.176 C 2.569,1.532 2.854,1.615 2.946,1.71 3.038,1.804 3.079,2.016 3.071,2.344 3.063,2.673 3.066,2.855 3.082,2.893 3.097,2.929 3.128,2.951 3.174,2.959 3.203,2.964 3.242,2.963 3.289,2.959 3.333,2.923 3.37,2.83 3.398,2.68 3.402,2.659 3.417,2.603 3.443,2.511 3.468,2.419 3.488,2.33 3.501,2.247 L 3.585,1.732 3.872,0.088 C 4.022,-0.843 4.06,-1.508 3.982,-1.904 3.904,-2.3 3.72,-2.636 3.428,-2.909 3.136,-3.184 2.787,-3.354 2.383,-3.42 1.613,-3.544 0.962,-3.237 0.426,-2.499 0.333,-2.372 0.252,-2.273 0.185,-2.203 -0.093,-2.394 -0.421,-2.649 -0.802,-2.973 l -1.235,-1.016 c -0.451,-0.4 -0.731,-0.67 -0.839,-0.811 -0.107,-0.142 -0.188,-0.306 -0.244,-0.493 -0.056,-0.187 -0.088,-0.491 -0.098,-0.913 -0.04,-0.012 -0.073,-0.019 -0.098,-0.023 -0.026,-0.004 -0.057,-0.007 -0.096,-0.009 -0.101,0.571 -0.213,1.24 -0.338,2.009 -0.01,0.055 -0.016,0.131 -0.023,0.229 0.52,0.389 1.088,0.839 1.706,1.35 l 1.544,1.203 c 0.155,0.153 0.247,0.274 0.278,0.363 0.031,0.088 0.035,0.199 0.014,0.332 l -0.092,0.532 -0.023,0.176 C -0.482,-0.052 -0.757,-0.09 -1.169,-0.157 L -3.313,-0.505 C -3.393,-0.514 -3.501,-0.549 -3.636,-0.609 -3.71,-0.655 -3.765,-0.723 -3.8,-0.813 -3.835,-0.901 -3.869,-1.148 -3.901,-1.552 l -0.022,-0.267 c -0.036,-0.04 -0.09,-0.066 -0.16,-0.077 -0.039,0.108 -0.063,0.186 -0.069,0.232 -0.062,0.375 -0.102,0.641 -0.119,0.796 -0.007,0.08 -0.016,0.145 -0.024,0.196 L -4.445,0.177 -4.574,1.01 C -4.58,1.046 -4.618,1.235 -4.685,1.574 l 0.005,0.13 0.061,0.023 c 0.036,0.006 0.085,-0.016 0.145,-0.066"
             style="fill:#868789;fill-opacity:1;fill-rule:nonzero;stroke:none"
             id="path86" /></g><g
           id="g88"
           transform="translate(137.1494,76.7324)"><path
             d="m 0,0 c 0.032,-0.094 0.052,-0.189 0.056,-0.287 0.012,-0.65 0.073,-1.023 0.18,-1.12 0.108,-0.098 0.649,-0.17 1.622,-0.215 l 0.666,-0.024 0.699,-0.032 0.768,-0.01 0.45,-0.033 0.496,-0.015 0.584,-0.027 H 5.782 L 6.11,-1.79 c 0.077,-0.008 0.166,-0.015 0.268,-0.019 0.267,-0.012 0.548,-0.013 0.846,-0.002 0.059,0.015 0.117,0.036 0.174,0.063 0.087,0.153 0.153,0.403 0.196,0.75 0.044,0.349 0.084,0.545 0.12,0.59 0.026,0.032 0.092,0.048 0.198,0.048 L 7.888,-0.895 7.773,-2.575 C 7.753,-3.008 7.74,-3.584 7.732,-4.306 7.664,-4.302 7.602,-4.294 7.542,-4.283 7.524,-4.198 7.508,-4.056 7.492,-3.856 7.465,-3.452 7.431,-3.204 7.393,-3.113 7.374,-3.058 7.34,-3.017 7.29,-2.988 7.215,-2.943 7.076,-2.911 6.868,-2.893 L 6.051,-2.824 3.226,-2.721 2.109,-2.67 c -0.35,0.025 -0.59,0.04 -0.716,0.046 -0.474,0.022 -0.777,0.023 -0.91,0.007 C 0.351,-2.633 0.254,-2.67 0.195,-2.725 0.136,-2.779 0.086,-2.871 0.046,-3 -0.01,-3.193 -0.042,-3.344 -0.051,-3.453 -0.07,-3.69 -0.111,-3.838 -0.173,-3.899 c -0.056,-0.01 -0.102,-0.014 -0.14,-0.013 l -0.05,0.003 c 0.004,0.386 0.01,0.669 0.018,0.852 0.006,0.105 0.021,0.294 0.045,0.564 l 0.028,0.877 0.075,1.493 0.006,0.12 z"
             style="fill:#868789;fill-opacity:1;fill-rule:nonzero;stroke:none"
             id="path90" /></g><g
           id="g92"
           transform="translate(135.4375,62.5977)"><path
             d="m 0,0 c -0.193,-0.278 -0.337,-0.575 -0.429,-0.894 -0.118,-0.411 -0.171,-0.832 -0.156,-1.262 0.015,-0.432 0.095,-0.833 0.241,-1.203 0.147,-0.37 0.339,-0.695 0.577,-0.976 0.239,-0.28 0.465,-0.494 0.676,-0.644 0.314,-0.213 0.746,-0.4 1.3,-0.56 0.528,-0.152 1.098,-0.195 1.706,-0.129 0.424,0.046 0.864,0.214 1.321,0.502 0.458,0.288 0.843,0.674 1.156,1.156 0.313,0.483 0.558,1.031 0.735,1.645 0.122,0.423 0.166,0.749 0.131,0.979 C 7.24,-1.354 7.219,-1.322 7.194,-1.288 7.1,-1.234 7.009,-1.195 6.924,-1.171 6.87,-1.155 6.807,-1.139 6.733,-1.122 6.257,-0.999 5.878,-0.896 5.593,-0.813 L 4.21,-0.408 C 2.178,0.178 1.035,0.468 0.782,0.458 0.532,0.45 0.272,0.296 0,0 M 0.652,3.176 C 0.674,3.006 0.666,2.819 0.629,2.613 0.578,2.314 0.585,2.08 0.65,1.906 0.843,1.733 1.396,1.514 2.313,1.25 L 3.275,0.971 3.853,0.792 4.283,0.682 5.067,0.441 7.057,-0.112 C 7.279,-0.177 7.437,-0.187 7.524,-0.142 7.652,-0.077 7.817,0.144 8.02,0.521 8.104,0.678 8.167,0.77 8.208,0.798 8.249,0.826 8.313,0.831 8.401,0.815 8.395,0.716 8.386,0.646 8.375,0.61 L 8.25,0.177 8.191,-0.05 C 8.147,-0.2 8.084,-0.362 7.999,-0.536 7.866,-0.903 7.743,-1.283 7.629,-1.678 7.596,-1.792 7.556,-1.956 7.508,-2.172 7.378,-2.742 7.278,-3.148 7.207,-3.393 7.065,-3.886 6.883,-4.336 6.659,-4.743 6.436,-5.153 6.124,-5.552 5.727,-5.938 5.477,-6.18 5.129,-6.398 4.681,-6.599 4.233,-6.797 3.775,-6.914 3.305,-6.948 c -0.47,-0.033 -0.972,0.026 -1.504,0.179 -0.476,0.137 -0.923,0.361 -1.34,0.668 -0.419,0.308 -0.754,0.664 -1.008,1.073 -0.256,0.408 -0.423,0.797 -0.505,1.163 -0.081,0.367 -0.09,0.893 -0.028,1.581 0.028,0.282 0.142,0.771 0.343,1.467 0.133,0.459 0.255,0.829 0.366,1.109 0.049,0.109 0.093,0.229 0.13,0.358 0.007,0.021 0.011,0.044 0.013,0.07 L 0.441,3.223 0.494,3.221 c 0.023,0.002 0.046,0 0.069,-0.007 z"
             style="fill:#868789;fill-opacity:1;fill-rule:nonzero;stroke:none"
             id="path94" /></g><g
           id="g96"
           transform="translate(131.9609,45.1064)"><path
             d="m 0,0 c -0.265,-0.367 -0.554,-0.796 -0.865,-1.284 -0.178,-0.279 -0.326,-0.529 -0.442,-0.75 0.161,-0.053 0.319,-0.096 0.47,-0.127 0.768,-0.164 1.191,-0.255 1.272,-0.272 L 1.981,-2.734 2.11,-2.743 c -0.029,0.05 -0.162,0.245 -0.4,0.588 -0.409,0.584 -0.738,1.025 -0.984,1.323 -0.11,0.135 -0.216,0.271 -0.323,0.408 -0.104,0.138 -0.18,0.232 -0.228,0.279 -0.047,0.048 -0.091,0.102 -0.132,0.164 z M -1.579,4.603 C -1.583,4.535 -1.596,4.482 -1.621,4.442 L -1.7,4.318 C -1.716,4.294 -1.741,4.25 -1.777,4.187 -1.928,3.896 -2.006,3.72 -2.014,3.653 -2.025,3.484 -1.976,3.304 -1.865,3.106 -1.62,2.688 -1.237,2.15 -0.719,1.493 -0.472,1.181 -0.323,0.987 -0.273,0.915 -0.117,0.69 0.054,0.46 0.235,0.228 L 1.321,-1.174 C 1.493,-1.393 1.879,-1.905 2.479,-2.71 2.631,-2.913 2.84,-3.175 3.108,-3.497 L 3.018,-3.66 2.893,-3.845 c -0.402,0.04 -0.815,0.114 -1.24,0.219 -0.225,0.056 -0.568,0.127 -1.03,0.215 l -2.718,0.593 -1.468,0.328 c -0.825,0.206 -1.336,0.32 -1.537,0.348 -0.201,0.028 -0.345,0.027 -0.433,-10e-4 -0.027,-0.008 -0.09,-0.062 -0.193,-0.16 -0.102,-0.097 -0.175,-0.165 -0.219,-0.203 -0.152,-0.134 -0.263,-0.223 -0.336,-0.266 -0.049,0.01 -0.084,0.023 -0.105,0.036 -0.018,0.011 -0.042,0.035 -0.071,0.068 0.07,0.116 0.12,0.196 0.149,0.243 0.117,0.183 0.327,0.5 0.631,0.954 l 0.355,0.527 0.405,0.653 c 0.027,0.042 0.057,0.085 0.089,0.127 0.033,0.041 0.058,0.078 0.079,0.11 l 0.075,0.118 c 0.029,0.037 0.063,0.066 0.102,0.087 0.05,-0.032 0.092,-0.071 0.127,-0.119 -0.006,-0.057 -0.02,-0.104 -0.037,-0.142 l -0.323,-0.585 c -0.085,-0.152 -0.136,-0.274 -0.152,-0.369 0.051,-0.063 0.092,-0.104 0.124,-0.125 0.063,-0.041 0.261,-0.101 0.587,-0.18 0.219,-0.049 0.426,-0.101 0.616,-0.155 0.192,-0.055 0.842,-0.205 1.951,-0.446 0.117,0.131 0.212,0.251 0.283,0.363 l 0.72,1.151 0.221,0.333 c 0.077,0.121 0.155,0.261 0.229,0.419 -0.076,0.113 -0.134,0.193 -0.171,0.238 l -1.17,1.41 C -2,2.502 -2.244,2.799 -2.302,2.835 -2.334,2.856 -2.398,2.874 -2.493,2.89 -2.563,2.828 -2.646,2.74 -2.743,2.627 L -3.272,1.94 C -3.329,1.922 -3.371,1.92 -3.396,1.937 c -0.016,0.01 -0.04,0.033 -0.069,0.067 0.099,0.163 0.176,0.286 0.23,0.372 0.182,0.285 0.403,0.612 0.664,0.978 0.117,0.17 0.2,0.293 0.249,0.369 0.047,0.074 0.127,0.207 0.239,0.396 0.068,0.126 0.121,0.216 0.156,0.269 0.054,0.087 0.13,0.193 0.229,0.322 l 0.031,-0.021 c 0.024,-0.015 0.054,-0.044 0.088,-0.086"
             style="fill:#868789;fill-opacity:1;fill-rule:nonzero;stroke:none"
             id="path98" /></g><g
           id="g100"
           transform="translate(117.6045,33.5029)"><path
             d="m 0,0 c -0.316,-0.122 -0.603,-0.289 -0.855,-0.501 -0.328,-0.275 -0.606,-0.596 -0.834,-0.962 -0.229,-0.366 -0.385,-0.743 -0.47,-1.132 -0.085,-0.389 -0.108,-0.767 -0.065,-1.132 0.041,-0.366 0.108,-0.669 0.201,-0.913 0.141,-0.351 0.396,-0.748 0.766,-1.188 0.354,-0.421 0.802,-0.775 1.346,-1.059 0.376,-0.199 0.833,-0.305 1.375,-0.321 0.541,-0.016 1.076,0.09 1.603,0.314 0.531,0.227 1.039,0.545 1.529,0.956 0.337,0.283 0.554,0.53 0.654,0.741 0.003,0.036 0.004,0.075 0.001,0.117 -0.049,0.097 -0.101,0.179 -0.158,0.248 -0.035,0.041 -0.079,0.091 -0.132,0.146 -0.324,0.368 -0.583,0.665 -0.773,0.893 L 3.267,-2.687 C 1.906,-1.066 1.118,-0.189 0.905,-0.056 0.69,0.076 0.39,0.096 0,0 M 2.311,2.272 C 2.234,2.12 2.124,1.97 1.979,1.818 1.771,1.601 1.646,1.399 1.603,1.222 1.664,0.969 2.002,0.479 2.615,-0.252 L 3.261,-1.021 3.639,-1.49 3.934,-1.823 4.452,-2.46 5.794,-4.028 c 0.149,-0.178 0.273,-0.274 0.371,-0.285 0.144,-0.018 0.402,0.072 0.781,0.275 0.158,0.082 0.261,0.122 0.311,0.122 0.049,10e-4 0.105,-0.029 0.17,-0.093 C 7.365,-4.087 7.32,-4.139 7.29,-4.163 L 6.945,-4.453 6.771,-4.61 C 6.65,-4.71 6.506,-4.809 6.339,-4.905 6.024,-5.136 5.71,-5.384 5.396,-5.647 5.306,-5.724 5.179,-5.836 5.019,-5.988 4.594,-6.39 4.283,-6.672 4.089,-6.835 3.697,-7.164 3.295,-7.437 2.881,-7.651 2.467,-7.866 1.986,-8.023 1.439,-8.123 1.098,-8.183 0.687,-8.171 0.204,-8.087 c -0.482,0.084 -0.929,0.243 -1.337,0.478 -0.41,0.233 -0.792,0.562 -1.148,0.987 -0.319,0.38 -0.565,0.813 -0.741,1.302 -0.174,0.488 -0.254,0.972 -0.238,1.453 0.017,0.48 0.093,0.896 0.231,1.246 0.137,0.35 0.423,0.793 0.857,1.329 0.182,0.218 0.549,0.56 1.104,1.025 0.366,0.308 0.673,0.547 0.922,0.717 0.102,0.063 0.206,0.139 0.308,0.226 0.017,0.013 0.034,0.03 0.05,0.049 L 2.163,2.43 2.205,2.398 C 2.226,2.388 2.243,2.373 2.26,2.354 Z"
             style="fill:#868789;fill-opacity:1;fill-rule:nonzero;stroke:none"
             id="path102" /></g><g
           id="g104"
           transform="translate(83.1328,55.542)"><path
             d="m 0,0 0.148,0.283 0.087,0.305 0.036,0.3 -0.042,0.304 -0.114,0.257 -0.443,0.441 -0.551,0.366 -7.124,5.318 7,-4.138 0.437,-0.177 0.262,10e-4 0.307,0.098 0.239,0.15 0.261,0.21 0.153,0.24 0.126,0.273 0.063,0.268 -0.004,0.314 -0.094,0.234 -0.106,0.212 -8.771,6.277 -0.198,0.153 -0.067,0.164 -0.114,0.224 -0.004,0.463 0.062,0.199 0.154,0.216 0.111,0.107 0.168,0.156 0.22,0.082 0.345,0.125 2.442,0.436 0.24,0.125 0.417,0.074 0.37,0.128 0.416,0.208 0.258,0.164 0.26,0.261 0.263,0.297 0.251,0.382 0.153,0.342 0.025,0.067 0.098,0.713 -0.079,-0.016 c 0.062,0.138 0.09,0.225 0.09,0.225 -3.321,-0.352 -11.156,-0.624 -11.156,-0.624 -12.949,-0.719 -15.536,8.402 -16.747,8.72 -1.212,0.315 -1.096,-1.157 -1.096,-1.157 -0.093,-4.774 1.253,-8.708 3.136,-11.852 4.056,-6.778 10.602,-9.897 10.602,-9.897 0,0 0.015,0.033 0.037,0.079 l 8.265,-6.178 0.136,0.006 0.252,0.251 0.194,0.286 0.133,0.317 0.082,0.329 -0.005,0.313 -0.114,0.423 -4.181,4.605 6.901,-5.064 0.26,-0.141 0.224,-0.173 0.263,-0.098 0.261,-0.04 0.306,0.035 0.287,0.094 0.253,0.171 0.239,0.214 0.193,0.222 0.132,0.311 0.083,0.271 -0.002,0.269 -0.069,0.289 -0.113,0.206 -6.797,6.36 8.308,-6.09 0.3,-0.089 0.287,-0.032 0.332,0.06 0.3,0.11 0.286,0.157 0.283,0.237 z"
             style="fill:#db332e;fill-opacity:1;fill-rule:nonzero;stroke:none"
             id="path106" /></g><g
           id="g108"
           transform="translate(75.4688,102.2266)"><path
             d="m 0,0 c 2.22,-6.809 -0.351,-13.753 -5.738,-15.508 -5.388,-1.756 -11.556,2.34 -13.774,9.149 -2.219,6.81 0.35,13.754 5.738,15.508 C -8.387,10.906 -2.219,6.81 0,0"
             style="fill:#edd11f;fill-opacity:1;fill-rule:nonzero;stroke:none"
             id="path110" /></g><g
           id="g112"
           transform="translate(66.3926,28.0264)"><path
             d="M 0,0 3.788,-0.58 C 4.984,-0.765 5.877,-0.998 6.466,-1.278 7.053,-1.559 7.491,-2.012 7.784,-2.64 8.075,-3.265 8.123,-4.21 7.931,-5.474 7.8,-6.327 7.574,-6.901 7.256,-7.198 6.936,-7.493 6.368,-7.671 5.554,-7.729 c 0.847,-0.334 1.391,-0.753 1.634,-1.263 0.243,-0.509 0.291,-1.237 0.144,-2.187 l -0.207,-1.353 c -0.15,-0.987 -0.377,-1.699 -0.675,-2.141 -0.299,-0.439 -0.707,-0.709 -1.226,-0.808 -0.521,-0.098 -1.544,-0.031 -3.071,0.204 l -4.392,0.673 z M 2.567,-8.602 1.94,-12.688 c 0.539,-0.064 0.892,-0.032 1.064,0.095 0.169,0.128 0.301,0.487 0.391,1.076 l 0.208,1.364 C 3.698,-9.529 3.69,-9.14 3.578,-8.988 3.467,-8.836 3.13,-8.707 2.567,-8.602 m 0.846,5.52 -0.498,-3.246 c 0.163,-0.019 0.29,-0.035 0.38,-0.05 0.373,-0.057 0.625,-0.002 0.756,0.165 0.131,0.168 0.262,0.685 0.394,1.552 0.071,0.457 0.077,0.783 0.022,0.978 -0.057,0.198 -0.148,0.331 -0.276,0.4 -0.128,0.068 -0.388,0.137 -0.778,0.201"
             style="fill:#db332e;fill-opacity:1;fill-rule:nonzero;stroke:none"
             id="path114" /></g><g
           id="g116"
           transform="translate(76.0225,26.6338)"><path
             d="m 0,0 2.875,-0.045 c 1.854,-0.031 3.11,-0.138 3.76,-0.317 0.652,-0.182 1.144,-0.47 1.48,-0.865 0.333,-0.395 0.539,-0.833 0.616,-1.31 0.078,-0.481 0.105,-1.419 0.082,-2.818 L 8.729,-10.531 C 8.709,-11.857 8.63,-12.743 8.5,-13.188 8.368,-13.634 8.144,-13.979 7.83,-14.228 7.515,-14.475 7.129,-14.645 6.671,-14.737 6.213,-14.831 5.524,-14.869 4.606,-14.855 l -4.847,0.079 z m 3.801,-2.59 -0.158,-9.721 c 0.554,-0.009 0.897,0.096 1.028,0.318 0.13,0.219 0.205,0.823 0.222,1.807 l 0.091,5.742 c 0.012,0.669 -0.003,1.098 -0.042,1.288 -0.04,0.187 -0.135,0.329 -0.286,0.42 -0.15,0.089 -0.435,0.138 -0.855,0.146"
             style="fill:#db332e;fill-opacity:1;fill-rule:nonzero;stroke:none"
             id="path118" /></g><g
           id="g120"
           transform="translate(94.3711,23.0986)"><path
             d="M 0,0 -3.543,-0.425 -3.674,0.662 C -3.734,1.169 -3.819,1.487 -3.926,1.616 -4.034,1.744 -4.193,1.795 -4.404,1.771 -4.634,1.741 -4.796,1.626 -4.893,1.427 -4.987,1.224 -5.011,0.934 -4.965,0.554 c 0.057,-0.491 0.169,-0.85 0.331,-1.081 0.155,-0.234 0.552,-0.489 1.186,-0.769 1.818,-0.805 2.987,-1.504 3.505,-2.098 0.52,-0.593 0.865,-1.608 1.037,-3.044 0.126,-1.046 0.095,-1.831 -0.09,-2.356 -0.184,-0.523 -0.607,-0.997 -1.268,-1.415 -0.66,-0.421 -1.455,-0.685 -2.384,-0.798 -1.022,-0.122 -1.916,-0.033 -2.684,0.268 -0.77,0.299 -1.301,0.733 -1.596,1.305 -0.297,0.571 -0.509,1.406 -0.642,2.505 l -0.116,0.96 3.543,0.426 0.216,-1.786 c 0.066,-0.548 0.156,-0.896 0.277,-1.04 0.118,-0.146 0.304,-0.202 0.558,-0.173 0.253,0.031 0.43,0.153 0.529,0.367 0.101,0.215 0.126,0.519 0.08,0.91 -0.104,0.865 -0.289,1.414 -0.557,1.653 -0.273,0.237 -0.921,0.609 -1.945,1.117 -1.023,0.515 -1.706,0.895 -2.049,1.141 -0.342,0.248 -0.644,0.608 -0.907,1.086 -0.262,0.477 -0.439,1.105 -0.534,1.885 -0.135,1.124 -0.091,1.962 0.135,2.515 0.224,0.556 0.639,1.017 1.244,1.387 0.605,0.37 1.361,0.608 2.266,0.717 0.992,0.119 1.853,0.06 2.59,-0.175 0.737,-0.237 1.247,-0.584 1.532,-1.042 0.285,-0.46 0.497,-1.273 0.638,-2.439 z"
             style="fill:#db332e;fill-opacity:1;fill-rule:nonzero;stroke:none"
             id="path122" /></g><g
           id="g124"
           transform="translate(60.1191,22.293)"><path
             d="m 0,0 c 0,-1.854 -1.67,-3.357 -3.73,-3.357 -2.062,0 -3.733,1.503 -3.733,3.357 0,1.856 1.671,3.359 3.733,3.359 C -1.67,3.359 0,1.856 0,0"
             style="fill:#868789;fill-opacity:1;fill-rule:nonzero;stroke:none"
             id="path126" /></g><g
           id="g128"
           transform="translate(107.1426,22.293)"><path
             d="m 0,0 c 0,-1.854 -1.671,-3.357 -3.731,-3.357 -2.063,0 -3.734,1.503 -3.734,3.357 0,1.856 1.671,3.359 3.734,3.359 C -1.671,3.359 0,1.856 0,0"
             style="fill:#868789;fill-opacity:1;fill-rule:nonzero;stroke:none"
             id="path130" /></g><g
           id="g132"
           transform="translate(83.1465,120.1514)"><path
             d="m 0,0 c -5.019,1.035 -10.128,-2.768 -12.131,-8.692 3.202,-1.429 6.011,-4.554 7.36,-8.691 0.917,-2.82 1.004,-5.656 0.421,-8.143 5.254,-0.497 10.412,4.113 11.782,10.753 C 8.877,-7.759 5.551,-1.146 0,0"
             style="fill:#db332e;fill-opacity:1;fill-rule:nonzero;stroke:none"
             id="path134" /></g><g
           id="g136"
           transform="translate(85.4443,87.6699)"><path
             d="m 0,0 c 0.001,0 0.002,0.001 0.003,0.002 0.642,0.42 1.168,0.809 1.626,1.174 -2.283,0.672 -4.59,1.001 -6.866,1.019 0.24,-0.066 0.476,-0.133 0.716,-0.209 C -2.877,1.478 -1.372,0.808 0,0"
             style="fill:#edd11f;fill-opacity:1;fill-rule:nonzero;stroke:none"
             id="path138" /></g><g
           id="g140"
           transform="translate(99.7422,77.5605)"><path
             d="m 0,0 -1.566,-3.396 -0.149,-0.092 -0.357,-0.03 -0.304,0.058 -0.335,0.159 -0.306,0.182 -0.203,0.188 -0.196,0.356 1.142,4.986 -2.461,-5.246 c 1.486,-5.42 1.284,-11.61 -0.566,-17.581 -3.463,-11.171 -10.603,-17.978 -21.564,-17.894 13.178,-3.668 23.937,3.718 28.011,17.105 C 3.197,-14.465 2.939,-6.476 0,0"
             style="fill:#edd11f;fill-opacity:1;fill-rule:nonzero;stroke:none"
             id="path142" /></g><g
           id="g144"
           transform="translate(85.8809,87.4961)"><path
             d="m 0,0 c -2.173,-1.417 -5.066,-3.392 -5.066,-3.392 l 0.467,-0.424 0.059,-0.03 0.318,-0.136 0.431,-0.105 0.398,-0.039 0.37,-0.02 0.322,0.048 0.485,0.119 0.4,0.141 0.418,0.207 0.284,0.063 2.437,1.209 0.377,0.13 0.242,0.079 0.234,-0.003 0.155,-0.003 0.256,-0.054 0.163,-0.096 0.241,-0.316 0.018,-0.225 0.026,-0.15 -0.096,-0.227 -4.58,-9.674 0.02,-0.209 0.041,-0.218 0.161,-0.215 0.199,-0.146 0.26,-0.103 0.269,-0.07 0.345,0.019 0.296,0.045 0.325,0.121 0.238,0.159 0.302,0.39 4.118,7.133 -3.6,-8.007 -0.304,-0.591 -0.165,-0.571 0.032,-0.245 0.125,-0.232 0.194,-0.184 0.24,-0.151 0.285,-0.101 0.315,-0.064 0.385,0.015 0.338,0.069 0.332,0.108 0.33,0.165 0.244,0.198 0.222,0.249 4.256,9.261 -2.747,-8.513 0.007,-0.21 0.091,-0.238 0.142,-0.184 0.218,-0.135 0.288,-0.127 0.291,-0.036 0.33,0.002 0.317,0.043 0.309,0.113 0.296,0.166 0.215,0.187 0.183,0.229 0.111,0.255 0.164,0.258 3.53,7.696 -1.323,-5.706 0.121,-0.358 0.164,-0.217 0.249,-0.173 0.289,-0.132 0.326,-0.077 0.361,-0.015 0.127,0.082 4.417,9.839 -0.132,0.173 0.155,0.102 c 0,0 2.143,2.86 -0.652,5.627 C 12.785,5.771 8.708,6.01 6.803,5.053 3.45,3.373 3.202,2.095 0,0"
             style="fill:#db332e;fill-opacity:1;fill-rule:nonzero;stroke:none"
             id="path146" /></g></g></g></g></svg>
